{"accessors":[{"bufferView":0,"componentType":5126,"count":230,"max":[1,0.34931153,1],"min":[-1,0.010317206,-1],"normalized":false,"type":"VEC3"},{"bufferView":1,"componentType":5126,"count":230,"max":[1,0.037434638,1.0000001,1],"min":[-1,-0.037333816,-1,1],"normalized":false,"type":"VEC4"},{"bufferView":2,"componentType":5126,"count":230,"max":[0.4201603,-0.9074166,0.420115],"min":[-0.42004168,-1,-0.42015576],"normalized":false,"type":"VEC3"},{"bufferView":3,"componentType":5126,"count":230,"max":[1.4962502,0.46010053],"min":[-0.484549,0.0059044147],"normalized":false,"type":"VEC2"},{"bufferView":4,"componentType":5121,"count":1056,"max":[229],"min":[0],"normalized":false,"type":"SCALAR"}],"asset":{"copyright":"The Creators of 'Slay the Spire 2'","generator":"GDRE Tools vv2.5.0-beta.5","version":"2.0"},"bufferViews":[{"buffer":0,"byteLength":2760,"byteStride":12,"target":34962},{"buffer":0,"byteLength":3680,"byteOffset":2760,"byteStride":16,"target":34962},{"buffer":0,"byteLength":2760,"byteOffset":6440,"byteStride":12,"target":34962},{"buffer":0,"byteLength":1840,"byteOffset":9200,"byteStride":8,"target":34962},{"buffer":0,"byteLength":1056,"byteOffset":11040,"target":34963}],"buffers":[{"byteLength":12096,"uri":"powerup_mesh0.bin"}],"extensionsUsed":["GODOT_single_root"],"materials":[{"pbrMetallicRoughness":{"baseColorFactor":[1,1,1,1],"metallicFactor":0.0,"roughnessFactor":1}}],"meshes":[{"name":"Circle","primitives":[{"attributes":{"NORMAL":2,"POSITION":0,"TANGENT":1,"TEXCOORD_0":3},"indices":4,"material":0,"mode":4}]}],"nodes":[{"children":[1],"name":"powerup_mesh"},{"mesh":0,"name":"Circle"}],"scene":0,"scenes":[{"name":"powerup_mesh","nodes":[0]}]}